<svg width="24" height="24" viewBox="0 0 24 24" fill="none" xmlns="http://www.w3.org/2000/svg">
<path fill-rule="evenodd" clip-rule="evenodd" d="M21.877 0V18.3529H19.0535V22.5882H21.1711V24H5.64172C4.61113 24 3.62289 23.5482 2.94524 22.7577C2.40878 22.1224 2.1123 21.3035 2.1123 20.4706V3.52941C2.1123 1.58118 3.69348 0 5.64172 0H21.877ZM17.6417 18.3529H5.797C4.68172 18.3529 3.72172 19.1153 3.5523 20.1035C3.53818 20.2165 3.52407 20.3294 3.52407 20.4282V20.4706C3.52407 20.9788 3.69348 21.4588 4.0323 21.84C4.4276 22.32 5.02054 22.5882 5.64172 22.5882H17.6417V21.1765H5.10524V19.7647H17.6417V18.3529ZM16.9358 11.2941H7.05347V12.7059H16.9358V11.2941H16.9358ZM17.6417 4.2353H6.34759V9.88235H17.6417V4.2353ZM7.75937 8.47059H16.23V5.64706H7.75937V8.47059Z" fill="white"/>
</svg>
