<svg width="24" height="24" viewBox="0 0 24 24" fill="none" xmlns="http://www.w3.org/2000/svg">
<path d="M4 17.75C4 18.9926 5.00736 20 6.25 20H14.75C15.9926 20 17 18.9926 17 17.75V10H20.5V6.75C20.5 4.9551 19.0449 3.5 17.25 3.5H7.25C5.45507 3.5 4 4.9551 4 6.75V17.75ZM17 8.5V5H17.25C18.2165 5 19 5.7835 19 6.75V8.5H17ZM15.5 5V17.75C15.5 18.1642 15.1642 18.5 14.75 18.5H6.25C5.83579 18.5 5.5 18.1642 5.5 17.75V6.75C5.5 5.7835 6.2835 5 7.25 5H15.5Z" fill="white" fill-opacity="0.3"/>
<path d="M7 15.25C7 15.6642 7.33579 16 7.75 16H13.25C13.6642 16 14 15.6642 14 15.25C14 14.8358 13.6642 14.5 13.25 14.5H7.75C7.33579 14.5 7 14.8358 7 15.25ZM7 11.75C7 12.1642 7.33579 12.5 7.75 12.5H13.25C13.6642 12.5 14 12.1642 14 11.75C14 11.3358 13.6642 11 13.25 11H7.75C7.33579 11 7 11.3358 7 11.75ZM7 8.25C7 8.6642 7.33579 9 7.75 9H10.25C10.6642 9 11 8.6642 11 8.25C11 7.8358 10.6642 7.5 10.25 7.5H7.75C7.33579 7.5 7 7.8358 7 8.25Z" fill="white" fill-opacity="0.3"/>
</svg>
